<?xml version="1.0" encoding="UTF-8" standalone="no"?>
<!DOCTYPE svg PUBLIC "-//W3C//DTD SVG 1.1//EN"
 "http://www.w3.org/Graphics/SVG/1.1/DTD/svg11.dtd">
<!-- Generated by graphviz version 14.1.5 (20260411.2331)
 -->
<!-- Title: Policy&#45;as&#45;Code &#45; repositorio central de regras + validacao no PR Pages: 1 -->
<svg width="3888pt" height="3430pt"
 viewBox="0.00 0.00 3888.00 3430.00" xmlns="http://www.w3.org/2000/svg" xmlns:xlink="http://www.w3.org/1999/xlink">
<g id="graph0" class="graph" transform="scale(2.22222 2.22222) rotate(0) translate(50.4 1492.9)">
<title>Policy&#45;as&#45;Code &#45; repositorio central de regras + validacao no PR</title>
<polygon fill="white" stroke="none" points="-50.4,50.4 -50.4,-1492.9 1699.15,-1492.9 1699.15,50.4 -50.4,50.4"/>
<text xml:space="preserve" text-anchor="middle" x="824.38" y="-5.6" font-family="Helvetica,sans-Serif" font-size="22.00" fill="#2d3436">Policy&#45;as&#45;Code &#45; repositorio central de regras + validacao no PR</text>
<g id="clust1" class="cluster">
<title>cluster_Repositorios consumidores (IaC)</title>
<path fill="#e8f4fd" stroke="#3f8dda" d="M223.8,-1014.5C223.8,-1014.5 644.4,-1014.5 644.4,-1014.5 650.4,-1014.5 656.4,-1020.5 656.4,-1026.5 656.4,-1026.5 656.4,-1422.5 656.4,-1422.5 656.4,-1428.5 650.4,-1434.5 644.4,-1434.5 644.4,-1434.5 223.8,-1434.5 223.8,-1434.5 217.8,-1434.5 211.8,-1428.5 211.8,-1422.5 211.8,-1422.5 211.8,-1026.5 211.8,-1026.5 211.8,-1020.5 217.8,-1014.5 223.8,-1014.5"/>
<text xml:space="preserve" text-anchor="middle" x="328.93" y="-1416.25" font-family="Helvetica,sans-Serif" font-size="15.00" fill="#1a4b8c">Repositorios consumidores (IaC)</text>
</g>
<g id="clust2" class="cluster">
<title>cluster_Repositorio CENTRAL de regras</title>
<path fill="#e8f4fd" stroke="#3f8dda" d="M20,-468.5C20,-468.5 336.6,-468.5 336.6,-468.5 342.6,-468.5 348.6,-474.5 348.6,-480.5 348.6,-480.5 348.6,-906.5 348.6,-906.5 348.6,-912.5 342.6,-918.5 336.6,-918.5 336.6,-918.5 20,-918.5 20,-918.5 14,-918.5 8,-912.5 8,-906.5 8,-906.5 8,-480.5 8,-480.5 8,-474.5 14,-468.5 20,-468.5"/>
<text xml:space="preserve" text-anchor="middle" x="123.62" y="-900.25" font-family="Helvetica,sans-Serif" font-size="15.00" fill="#1a4b8c">Repositorio CENTRAL de regras</text>
</g>
<g id="clust3" class="cluster">
<title>cluster_Validacao no Pull Request (GitHub Actions)</title>
<path fill="#e8f4fd" stroke="#3f8dda" d="M531.6,-626.5C531.6,-626.5 971.7,-626.5 971.7,-626.5 977.7,-626.5 983.7,-632.5 983.7,-638.5 983.7,-638.5 983.7,-840.5 983.7,-840.5 983.7,-846.5 977.7,-852.5 971.7,-852.5 971.7,-852.5 531.6,-852.5 531.6,-852.5 525.6,-852.5 519.6,-846.5 519.6,-840.5 519.6,-840.5 519.6,-638.5 519.6,-638.5 519.6,-632.5 525.6,-626.5 531.6,-626.5"/>
<text xml:space="preserve" text-anchor="middle" x="671.23" y="-834.25" font-family="Helvetica,sans-Serif" font-size="15.00" fill="#1a4b8c">Validacao no Pull Request (GitHub Actions)</text>
</g>
<g id="clust4" class="cluster">
<title>cluster_Conta de destino (AWS)</title>
<path fill="#e8f4fd" stroke="#3f8dda" d="M1117.2,-38.5C1117.2,-38.5 1636.75,-38.5 1636.75,-38.5 1642.75,-38.5 1648.75,-44.5 1648.75,-50.5 1648.75,-50.5 1648.75,-1062.5 1648.75,-1062.5 1648.75,-1068.5 1642.75,-1074.5 1636.75,-1074.5 1636.75,-1074.5 1117.2,-1074.5 1117.2,-1074.5 1111.2,-1074.5 1105.2,-1068.5 1105.2,-1062.5 1105.2,-1062.5 1105.2,-50.5 1105.2,-50.5 1105.2,-44.5 1111.2,-38.5 1117.2,-38.5"/>
<text xml:space="preserve" text-anchor="middle" x="1194.2" y="-1056.25" font-family="Helvetica,sans-Serif" font-size="15.00" fill="#1a4b8c">Conta de destino (AWS)</text>
</g>
<g id="clust5" class="cluster">
<title>cluster_Recursos governados (exemplos)</title>
<path fill="#e8f4fd" stroke="#3f8dda" d="M1402.5,-56.5C1402.5,-56.5 1618.75,-56.5 1618.75,-56.5 1624.75,-56.5 1630.75,-62.5 1630.75,-68.5 1630.75,-68.5 1630.75,-1020.5 1630.75,-1020.5 1630.75,-1026.5 1624.75,-1032.5 1618.75,-1032.5 1618.75,-1032.5 1402.5,-1032.5 1402.5,-1032.5 1396.5,-1032.5 1390.5,-1026.5 1390.5,-1020.5 1390.5,-1020.5 1390.5,-68.5 1390.5,-68.5 1390.5,-62.5 1396.5,-56.5 1402.5,-56.5"/>
<text xml:space="preserve" text-anchor="middle" x="1510.63" y="-1014.25" font-family="Helvetica,sans-Serif" font-size="15.00" fill="#1a4b8c">Recursos governados (exemplos)</text>
</g>
<!-- 164008b7e136410c8667cd2bfc359d8f -->
<g id="node1" class="node">
<title>164008b7e136410c8667cd2bfc359d8f</title>
<image xlink:href="/Users/dsdennis/Documents/aws-code/scp-rcp-dashboard/.venv/lib/python3.14/site-packages/resources/onprem/client/users.png" width="100.8px" height="100.8px" preserveAspectRatio="xMinYMin meet" x="229.8" y="-1374.9"/>
<text xml:space="preserve" text-anchor="middle" x="280.2" y="-1257.25" font-family="Helvetica,sans-Serif" font-size="13.00" fill="#2d3436">Desenvolvedores</text>
</g>
<!-- 4e12e6f74f0445d0afd885fa6e8cc515 -->
<g id="node2" class="node">
<title>4e12e6f74f0445d0afd885fa6e8cc515</title>
<image xlink:href="/Users/dsdennis/Documents/aws-code/scp-rcp-dashboard/.venv/lib/python3.14/site-packages/resources/onprem/vcs/github.png" width="100.8px" height="100.8px" preserveAspectRatio="xMinYMin meet" x="537.6" y="-1359.9"/>
<text xml:space="preserve" text-anchor="middle" x="588" y="-1241.35" font-family="Helvetica,sans-Serif" font-size="13.00" fill="#2d3436">App Repo A</text>
<text xml:space="preserve" text-anchor="middle" x="588" y="-1227.85" font-family="Helvetica,sans-Serif" font-size="13.00" fill="#2d3436">(Terraform/CFN)</text>
</g>
<!-- 164008b7e136410c8667cd2bfc359d8f&#45;&gt;4e12e6f74f0445d0afd885fa6e8cc515 -->
<g id="edge3" class="edge">
<title>164008b7e136410c8667cd2bfc359d8f&#45;&gt;4e12e6f74f0445d0afd885fa6e8cc515</title>
<path fill="none" stroke="#7b8894" d="M330.33,-1322.09C383.64,-1319.48 468.81,-1315.3 526.27,-1312.48"/>
<polygon fill="#7b8894" stroke="#7b8894" points="526.41,-1315.98 536.22,-1311.99 526.07,-1308.98 526.41,-1315.98"/>
<text xml:space="preserve" text-anchor="middle" x="434.1" y="-1320.37" font-family="Sans-Serif" font-size="13.00" fill="#2d3436">abre PR</text>
</g>
<!-- a704698c8c41493fa3dc2a41259569bb -->
<g id="node7" class="node">
<title>a704698c8c41493fa3dc2a41259569bb</title>
<image xlink:href="/Users/dsdennis/Documents/aws-code/scp-rcp-dashboard/.venv/lib/python3.14/site-packages/resources/onprem/ci/github-actions.png" width="100.8px" height="100.8px" preserveAspectRatio="xMinYMin meet" x="537.6" y="-777.9"/>
<text xml:space="preserve" text-anchor="middle" x="588" y="-659.35" font-family="Helvetica,sans-Serif" font-size="13.00" fill="#2d3436">Policy Gate</text>
<text xml:space="preserve" text-anchor="middle" x="588" y="-645.85" font-family="Helvetica,sans-Serif" font-size="13.00" fill="#2d3436">(reusable workflow)</text>
</g>
<!-- 4e12e6f74f0445d0afd885fa6e8cc515&#45;&gt;a704698c8c41493fa3dc2a41259569bb -->
<g id="edge4" class="edge">
<title>4e12e6f74f0445d0afd885fa6e8cc515&#45;&gt;a704698c8c41493fa3dc2a41259569bb</title>
<path fill="none" stroke="#7c3aed" d="M588,-1227.02C588,-1120.05 588,-933.93 588,-821.58"/>
<polygon fill="#7c3aed" stroke="#7c3aed" points="591.5,-821.78 588,-811.78 584.5,-821.78 591.5,-821.78"/>
<text xml:space="preserve" text-anchor="middle" x="578.25" y="-1012.9" font-family="Sans-Serif" font-size="13.00" fill="#2d3436">on: pull_request</text>
</g>
<!-- 28b0f8074ca14d8abc1f816e4272a0ce -->
<g id="node3" class="node">
<title>28b0f8074ca14d8abc1f816e4272a0ce</title>
<image xlink:href="/Users/dsdennis/Documents/aws-code/scp-rcp-dashboard/.venv/lib/python3.14/site-packages/resources/onprem/vcs/github.png" width="100.8px" height="100.8px" preserveAspectRatio="xMinYMin meet" x="229.8" y="-1165.9"/>
<text xml:space="preserve" text-anchor="middle" x="280.2" y="-1047.35" font-family="Helvetica,sans-Serif" font-size="13.00" fill="#2d3436">App Repo B</text>
<text xml:space="preserve" text-anchor="middle" x="280.2" y="-1033.85" font-family="Helvetica,sans-Serif" font-size="13.00" fill="#2d3436">(Terraform/CFN)</text>
</g>
<!-- 28b0f8074ca14d8abc1f816e4272a0ce&#45;&gt;a704698c8c41493fa3dc2a41259569bb -->
<g id="edge5" class="edge">
<title>28b0f8074ca14d8abc1f816e4272a0ce&#45;&gt;a704698c8c41493fa3dc2a41259569bb</title>
<path fill="none" stroke="#7c3aed" d="M330.33,-1053.16C385.09,-983.69 473.46,-871.56 530.89,-798.69"/>
<polygon fill="#7c3aed" stroke="#7c3aed" points="533.36,-801.21 536.8,-791.19 527.86,-796.88 533.36,-801.21"/>
</g>
<!-- 3099d237c38940a9b2b0bdf00cbcf66e -->
<g id="node4" class="node">
<title>3099d237c38940a9b2b0bdf00cbcf66e</title>
<image xlink:href="/Users/dsdennis/Documents/aws-code/scp-rcp-dashboard/.venv/lib/python3.14/site-packages/resources/onprem/vcs/github.png" width="100.8px" height="100.8px" preserveAspectRatio="xMinYMin meet" x="26" y="-731.9"/>
<text xml:space="preserve" text-anchor="middle" x="76.4" y="-613.35" font-family="Helvetica,sans-Serif" font-size="13.00" fill="#2d3436">policy&#45;as&#45;code</text>
<text xml:space="preserve" text-anchor="middle" x="76.4" y="-599.85" font-family="Helvetica,sans-Serif" font-size="13.00" fill="#2d3436">(regras por epico)</text>
</g>
<!-- f3a26a311264472491b680611edabcf5 -->
<g id="node5" class="node">
<title>f3a26a311264472491b680611edabcf5</title>
<image xlink:href="/Users/dsdennis/Documents/aws-code/scp-rcp-dashboard/.venv/lib/python3.14/site-packages/resources/onprem/iac/terraform.png" width="100.8px" height="100.8px" preserveAspectRatio="xMinYMin meet" x="229.8" y="-619.9"/>
<text xml:space="preserve" text-anchor="middle" x="280.2" y="-501.35" font-family="Helvetica,sans-Serif" font-size="13.00" fill="#2d3436">Checkov</text>
<text xml:space="preserve" text-anchor="middle" x="280.2" y="-487.85" font-family="Helvetica,sans-Serif" font-size="13.00" fill="#2d3436">(Terraform)</text>
</g>
<!-- 3099d237c38940a9b2b0bdf00cbcf66e&#45;&gt;f3a26a311264472491b680611edabcf5 -->
<g id="edge1" class="edge">
<title>3099d237c38940a9b2b0bdf00cbcf66e&#45;&gt;f3a26a311264472491b680611edabcf5</title>
<path fill="none" stroke="#8896a6" d="M126.77,-654.1C154.97,-638.45 190.51,-618.72 220.18,-602.26"/>
<polygon fill="#8896a6" stroke="#8896a6" points="221.63,-605.46 228.67,-597.54 218.23,-599.34 221.63,-605.46"/>
</g>
<!-- b9e1be8f96ae472b8bd4e60baac1ae47 -->
<g id="node6" class="node">
<title>b9e1be8f96ae472b8bd4e60baac1ae47</title>
<image xlink:href="/Users/dsdennis/Documents/aws-code/scp-rcp-dashboard/.venv/lib/python3.14/site-packages/resources/aws/management/cloudformation.png" width="100.8px" height="100.8px" preserveAspectRatio="xMinYMin meet" x="229.8" y="-843.9"/>
<text xml:space="preserve" text-anchor="middle" x="280.2" y="-725.35" font-family="Helvetica,sans-Serif" font-size="13.00" fill="#2d3436">cfn&#45;guard</text>
<text xml:space="preserve" text-anchor="middle" x="280.2" y="-711.85" font-family="Helvetica,sans-Serif" font-size="13.00" fill="#2d3436">(CloudFormation)</text>
</g>
<!-- 3099d237c38940a9b2b0bdf00cbcf66e&#45;&gt;b9e1be8f96ae472b8bd4e60baac1ae47 -->
<g id="edge2" class="edge">
<title>3099d237c38940a9b2b0bdf00cbcf66e&#45;&gt;b9e1be8f96ae472b8bd4e60baac1ae47</title>
<path fill="none" stroke="#8896a6" d="M126.77,-708.9C154.97,-724.55 190.51,-744.28 220.18,-760.74"/>
<polygon fill="#8896a6" stroke="#8896a6" points="218.23,-763.66 228.67,-765.46 221.63,-757.54 218.23,-763.66"/>
</g>
<!-- f3a26a311264472491b680611edabcf5&#45;&gt;a704698c8c41493fa3dc2a41259569bb -->
<g id="edge6" class="edge">
<title>f3a26a311264472491b680611edabcf5&#45;&gt;a704698c8c41493fa3dc2a41259569bb</title>
<path fill="none" stroke="#3f8dda" stroke-dasharray="5,2" d="M330.33,-594.89C384.09,-622.66 470.24,-667.17 527.71,-696.87"/>
<polygon fill="#3f8dda" stroke="#3f8dda" points="525.9,-699.87 536.39,-701.35 529.11,-693.65 525.9,-699.87"/>
<text xml:space="preserve" text-anchor="middle" x="434.1" y="-673.03" font-family="Sans-Serif" font-size="13.00" fill="#2d3436">regras (checkout)</text>
</g>
<!-- b9e1be8f96ae472b8bd4e60baac1ae47&#45;&gt;a704698c8c41493fa3dc2a41259569bb -->
<g id="edge7" class="edge">
<title>b9e1be8f96ae472b8bd4e60baac1ae47&#45;&gt;a704698c8c41493fa3dc2a41259569bb</title>
<path fill="none" stroke="#3f8dda" stroke-dasharray="5,2" d="M330.33,-782.9C383.75,-771.37 469.17,-752.93 526.63,-740.53"/>
<polygon fill="#3f8dda" stroke="#3f8dda" points="527.22,-743.98 536.26,-738.45 525.74,-737.14 527.22,-743.98"/>
</g>
<!-- 27979f00fdcf48778b42bee8c425da92 -->
<g id="node8" class="node">
<title>27979f00fdcf48778b42bee8c425da92</title>
<image xlink:href="/Users/dsdennis/Documents/aws-code/scp-rcp-dashboard/.venv/lib/python3.14/site-packages/resources/programming/flowchart/decision.png" width="100.8px" height="100.8px" preserveAspectRatio="xMinYMin meet" x="864.9" y="-777.9"/>
<text xml:space="preserve" text-anchor="middle" x="915.3" y="-660.25" font-family="Helvetica,sans-Serif" font-size="13.00" fill="#2d3436">Conforme?</text>
</g>
<!-- a704698c8c41493fa3dc2a41259569bb&#45;&gt;27979f00fdcf48778b42bee8c425da92 -->
<g id="edge8" class="edge">
<title>a704698c8c41493fa3dc2a41259569bb&#45;&gt;27979f00fdcf48778b42bee8c425da92</title>
<path fill="none" stroke="#7b8894" d="M638.05,-727.5C695.78,-727.5 791.65,-727.5 853.9,-727.5"/>
<polygon fill="#7b8894" stroke="#7b8894" points="853.6,-731 863.6,-727.5 853.6,-724 853.6,-731"/>
<text xml:space="preserve" text-anchor="middle" x="751.65" y="-728.65" font-family="Sans-Serif" font-size="13.00" fill="#2d3436">Checkov + cfn&#45;guard</text>
</g>
<!-- c57b6bd59a7d473583f045d5f4956e29 -->
<g id="node9" class="node">
<title>c57b6bd59a7d473583f045d5f4956e29</title>
<image xlink:href="/Users/dsdennis/Documents/aws-code/scp-rcp-dashboard/.venv/lib/python3.14/site-packages/resources/onprem/ci/github-actions.png" width="100.8px" height="100.8px" preserveAspectRatio="xMinYMin meet" x="1123.2" y="-777.9"/>
<text xml:space="preserve" text-anchor="middle" x="1173.6" y="-660.25" font-family="Helvetica,sans-Serif" font-size="13.00" fill="#2d3436">Deploy pipeline</text>
</g>
<!-- 27979f00fdcf48778b42bee8c425da92&#45;&gt;c57b6bd59a7d473583f045d5f4956e29 -->
<g id="edge10" class="edge">
<title>27979f00fdcf48778b42bee8c425da92&#45;&gt;c57b6bd59a7d473583f045d5f4956e29</title>
<path fill="none" stroke="#1e8e3e" d="M965.41,-727.5C1007.13,-727.5 1067.19,-727.5 1111.91,-727.5"/>
<polygon fill="#1e8e3e" stroke="#1e8e3e" points="1111.7,-731 1121.7,-727.5 1111.7,-724 1111.7,-731"/>
<text xml:space="preserve" text-anchor="middle" x="1044.45" y="-728.65" font-family="Sans-Serif" font-size="13.00" fill="#2d3436">conforme</text>
</g>
<!-- b3bd7d25cf3540d98d9961633d2698c2 -->
<g id="node15" class="node">
<title>b3bd7d25cf3540d98d9961633d2698c2</title>
<image xlink:href="/Users/dsdennis/Documents/aws-code/scp-rcp-dashboard/.venv/lib/python3.14/site-packages/resources/programming/flowchart/start-end.png" width="100.8px" height="100.8px" preserveAspectRatio="xMinYMin meet" x="1123.2" y="-1210.9"/>
<text xml:space="preserve" text-anchor="middle" x="1173.6" y="-1093.25" font-family="Helvetica,sans-Serif" font-size="13.00" fill="#2d3436">Merge bloqueado</text>
</g>
<!-- 27979f00fdcf48778b42bee8c425da92&#45;&gt;b3bd7d25cf3540d98d9961633d2698c2 -->
<g id="edge9" class="edge">
<title>27979f00fdcf48778b42bee8c425da92&#45;&gt;b3bd7d25cf3540d98d9961633d2698c2</title>
<path fill="none" stroke="#d13212" d="M952.05,-795.83C1006.82,-900.48 1105.2,-1088.5 1105.2,-1088.5 1105.2,-1088.5 1109.4,-1092.98 1115.7,-1099.72"/>
<polygon fill="#d13212" stroke="#d13212" points="1112.84,-1101.78 1122.23,-1106.69 1117.95,-1097 1112.84,-1101.78"/>
<text xml:space="preserve" text-anchor="middle" x="1044.45" y="-1020.59" font-family="Sans-Serif" font-size="13.00" fill="#2d3436">viola</text>
</g>
<!-- e5480ad7c4f441adb513a53028152e86 -->
<g id="node10" class="node">
<title>e5480ad7c4f441adb513a53028152e86</title>
<image xlink:href="/Users/dsdennis/Documents/aws-code/scp-rcp-dashboard/.venv/lib/python3.14/site-packages/resources/aws/storage/simple-storage-service-s3.png" width="100.8px" height="100.8px" preserveAspectRatio="xMinYMin meet" x="1459.73" y="-192.9"/>
<text xml:space="preserve" text-anchor="middle" x="1510.13" y="-75.25" font-family="Helvetica,sans-Serif" font-size="13.00" fill="#2d3436">S3 bucket</text>
</g>
<!-- c57b6bd59a7d473583f045d5f4956e29&#45;&gt;e5480ad7c4f441adb513a53028152e86 -->
<g id="edge12" class="edge">
<title>c57b6bd59a7d473583f045d5f4956e29&#45;&gt;e5480ad7c4f441adb513a53028152e86</title>
<path fill="none" stroke="#1e8e3e" d="M1200.72,-659.35C1230.46,-581.72 1275,-465.5 1275,-465.5 1275,-465.5 1390.5,-240.5 1390.5,-240.5 1390.5,-240.5 1420.95,-215.35 1450.99,-190.53"/>
<polygon fill="#1e8e3e" stroke="#1e8e3e" points="1453.2,-193.24 1458.68,-184.17 1448.74,-187.84 1453.2,-193.24"/>
<text xml:space="preserve" text-anchor="middle" x="1307.25" y="-480.15" font-family="Sans-Serif" font-size="13.00" fill="#2d3436">provisiona</text>
<text xml:space="preserve" text-anchor="middle" x="1307.25" y="-466.65" font-family="Sans-Serif" font-size="13.00" fill="#2d3436">(conforme)</text>
</g>
<!-- 060b47a5d48745daa045dfd92fa3b146 -->
<g id="node11" class="node">
<title>060b47a5d48745daa045dfd92fa3b146</title>
<image xlink:href="/Users/dsdennis/Documents/aws-code/scp-rcp-dashboard/.venv/lib/python3.14/site-packages/resources/aws/compute/ec2.png" width="100.8px" height="100.8px" preserveAspectRatio="xMinYMin meet" x="1459.73" y="-387.9"/>
<text xml:space="preserve" text-anchor="middle" x="1510.13" y="-270.25" font-family="Helvetica,sans-Serif" font-size="13.00" fill="#2d3436">EC2 instance</text>
</g>
<!-- c57b6bd59a7d473583f045d5f4956e29&#45;&gt;060b47a5d48745daa045dfd92fa3b146 -->
<g id="edge13" class="edge">
<title>c57b6bd59a7d473583f045d5f4956e29&#45;&gt;060b47a5d48745daa045dfd92fa3b146</title>
<path fill="none" stroke="#1e8e3e" d="M1223.86,-660.88C1287.58,-574.69 1390.5,-435.5 1390.5,-435.5 1390.5,-435.5 1420.95,-410.35 1450.99,-385.53"/>
<polygon fill="#1e8e3e" stroke="#1e8e3e" points="1453.2,-388.24 1458.68,-379.17 1448.74,-382.84 1453.2,-388.24"/>
</g>
<!-- 0f5c5543b4024c83b5d47e80c0deae14 -->
<g id="node12" class="node">
<title>0f5c5543b4024c83b5d47e80c0deae14</title>
<image xlink:href="/Users/dsdennis/Documents/aws-code/scp-rcp-dashboard/.venv/lib/python3.14/site-packages/resources/aws/database/rds.png" width="100.8px" height="100.8px" preserveAspectRatio="xMinYMin meet" x="1459.73" y="-582.9"/>
<text xml:space="preserve" text-anchor="middle" x="1510.13" y="-465.25" font-family="Helvetica,sans-Serif" font-size="13.00" fill="#2d3436">RDS</text>
</g>
<!-- c57b6bd59a7d473583f045d5f4956e29&#45;&gt;0f5c5543b4024c83b5d47e80c0deae14 -->
<g id="edge14" class="edge">
<title>c57b6bd59a7d473583f045d5f4956e29&#45;&gt;0f5c5543b4024c83b5d47e80c0deae14</title>
<path fill="none" stroke="#1e8e3e" d="M1223.96,-698.73C1284.21,-663.61 1385.97,-604.29 1450.24,-566.82"/>
<polygon fill="#1e8e3e" stroke="#1e8e3e" points="1451.65,-570.05 1458.53,-561.99 1448.13,-564.01 1451.65,-570.05"/>
</g>
<!-- eaa90821ac784b47ace45f163212e656 -->
<g id="node13" class="node">
<title>eaa90821ac784b47ace45f163212e656</title>
<image xlink:href="/Users/dsdennis/Documents/aws-code/scp-rcp-dashboard/.venv/lib/python3.14/site-packages/resources/aws/security/key-management-service.png" width="100.8px" height="100.8px" preserveAspectRatio="xMinYMin meet" x="1459.73" y="-777.9"/>
<text xml:space="preserve" text-anchor="middle" x="1510.13" y="-660.25" font-family="Helvetica,sans-Serif" font-size="13.00" fill="#2d3436">KMS key (CMK)</text>
</g>
<!-- c57b6bd59a7d473583f045d5f4956e29&#45;&gt;eaa90821ac784b47ace45f163212e656 -->
<g id="edge15" class="edge">
<title>c57b6bd59a7d473583f045d5f4956e29&#45;&gt;eaa90821ac784b47ace45f163212e656</title>
<path fill="none" stroke="#1e8e3e" d="M1223.96,-727.5C1283.71,-727.5 1384.3,-727.5 1448.65,-727.5"/>
<polygon fill="#1e8e3e" stroke="#1e8e3e" points="1448.32,-731 1458.32,-727.5 1448.32,-724 1448.32,-731"/>
</g>
<!-- 5ec9cddeeba4455192f248961c59601c -->
<g id="node14" class="node">
<title>5ec9cddeeba4455192f248961c59601c</title>
<image xlink:href="/Users/dsdennis/Documents/aws-code/scp-rcp-dashboard/.venv/lib/python3.14/site-packages/resources/aws/management/config.png" width="100.8px" height="100.8px" preserveAspectRatio="xMinYMin meet" x="1459.73" y="-972.9"/>
<text xml:space="preserve" text-anchor="middle" x="1510.13" y="-855.25" font-family="Helvetica,sans-Serif" font-size="13.00" fill="#2d3436">AWS Config rule</text>
</g>
<!-- c57b6bd59a7d473583f045d5f4956e29&#45;&gt;5ec9cddeeba4455192f248961c59601c -->
<g id="edge16" class="edge">
<title>c57b6bd59a7d473583f045d5f4956e29&#45;&gt;5ec9cddeeba4455192f248961c59601c</title>
<path fill="none" stroke="#1e8e3e" d="M1223.96,-756.27C1284.21,-791.39 1385.97,-850.71 1450.24,-888.18"/>
<polygon fill="#1e8e3e" stroke="#1e8e3e" points="1448.13,-890.99 1458.53,-893.01 1451.65,-884.95 1448.13,-890.99"/>
</g>
<!-- b3bd7d25cf3540d98d9961633d2698c2&#45;&gt;164008b7e136410c8667cd2bfc359d8f -->
<g id="edge11" class="edge">
<title>b3bd7d25cf3540d98d9961633d2698c2&#45;&gt;164008b7e136410c8667cd2bfc359d8f</title>
<path fill="none" stroke="#d13212" stroke-dasharray="5,2" d="M1123.25,-1163.3C971.13,-1171.92 519.6,-1197.5 519.6,-1197.5 519.6,-1197.5 411.34,-1255.17 340.72,-1292.79"/>
<polygon fill="#d13212" stroke="#d13212" points="339.11,-1289.68 331.93,-1297.47 342.4,-1295.86 339.11,-1289.68"/>
<text xml:space="preserve" text-anchor="middle" x="751.65" y="-1188.8" font-family="Sans-Serif" font-size="13.00" fill="#2d3436">corrige e reenvia</text>
</g>
</g>
</svg>
